<svg width="22" height="22" viewBox="0 0 22 22" fill="none" xmlns="http://www.w3.org/2000/svg">
<g clip-path="url(#clip0)">
<path d="M15.2231 13.0548C17.8639 9.32567 16.9807 4.16192 13.2516 1.52169C9.52245 -1.11854 4.3587 -0.235943 1.71847 3.49382C-0.921766 7.22295 -0.0391655 12.3861 3.6906 15.0263C6.35228 16.9107 9.87132 17.0558 12.6787 15.3979L18.7787 21.4613C19.4374 22.1546 20.5332 22.1824 21.2265 21.5237C21.9199 20.8657 21.9476 19.7699 21.2896 19.0765C21.2688 19.0545 21.2486 19.0343 21.2265 19.0135L15.2231 13.0548ZM8.46572 13.6201C5.51888 13.6207 3.12974 11.2334 3.12785 8.28661C3.12722 5.33977 5.51447 2.95063 8.46194 2.94937C11.405 2.94811 13.7929 5.33157 13.7986 8.27462C13.8036 11.2221 11.4176 13.615 8.46951 13.6201C8.46825 13.6201 8.46762 13.6201 8.46572 13.6201Z" fill="#8497AE"/>
</g>
<defs>
<clipPath id="clip0">
<rect width="22" height="22" fill="white"/>
</clipPath>
</defs>
</svg>
